<svg width="159" height="29" viewBox="0 0 159 29" fill="none" xmlns="http://www.w3.org/2000/svg">
<g clip-path="url(#clip0_441_2)">
<path d="M31.4502 21.7665V7.24609H42.0677V9.21166H33.7872V13.5093H40.234V15.4749H33.7872V21.7842L31.4502 21.7665Z" fill="white"/>
<path d="M49.3811 7.25116H59.9969V9.21672H51.7217V13.5091H58.1559V15.4746H51.7217V19.767H60.0022V21.768H49.3811V7.25116Z" fill="white"/>
<path d="M72.7638 7.25098H74.9432L81.0318 21.782H78.5337L73.8615 10.3197L69.1554 21.782H66.6787L72.7638 7.25098Z" fill="white"/>
<path d="M90.7035 9.21674H85.2469V7.21576H98.4772V9.21674H93.0386V21.7892H90.7106L90.7035 9.21674Z" fill="white"/>
<path d="M105.713 7.25098H108.041V13.8808H117.353V7.25098H119.706V21.782H117.358V15.8693H108.046V21.782H105.718L105.713 7.25098Z" fill="white"/>
<path d="M127.517 7.25116H138.132V9.21672H129.852V13.5091H136.284V15.4746H129.852V19.767H138.132V21.768H127.517V7.25116Z" fill="white"/>
<path d="M144.812 7.25116H152.727C156.651 7.25116 158.799 9.09985 158.799 11.9579C158.799 13.6118 158.119 15.163 156.061 16.0431L159.007 21.7822H156.428L153.785 16.5938C153.432 16.6285 153.077 16.6457 152.722 16.6451H149.204L149.17 14.6636H152.711C155.218 14.6459 156.459 13.7782 156.459 11.9579C156.459 10.6298 155.884 9.73379 154.176 9.37078C153.687 9.27657 153.191 9.22502 152.693 9.21672H147.149V21.7892H144.812V7.25116Z" fill="white"/>
<path d="M9.97645 9.57459H19.8168V0H9.96212V9.57459H0.0268617L9.97466 19.4254H0V29H9.96212V19.4254H19.9242L9.97645 9.57459Z" fill="white"/>
</g>
<defs>
<clipPath id="clip0_441_2">
<rect width="159" height="29" fill="white"/>
</clipPath>
</defs>
</svg>
