<svg width="159" height="29" viewBox="0 0 159 29" fill="none" xmlns="http://www.w3.org/2000/svg">
<g clip-path="url(#clip0_54_525)">
<path d="M31.4502 21.7665V7.24609H42.0677V9.21166H33.7872V13.5093H40.234V15.4749H33.7872V21.7842L31.4502 21.7665Z" fill="black"/>
<path d="M49.381 7.25119H59.9968V9.21675H51.7216V13.5091H58.1559V15.4747H51.7216V19.767H60.0022V21.768H49.381V7.25119Z" fill="black"/>
<path d="M72.7638 7.25098H74.9432L81.0318 21.782H78.5337L73.8615 10.3197L69.1554 21.782H66.6787L72.7638 7.25098Z" fill="black"/>
<path d="M90.7035 9.21677H85.2469V7.21579H98.4772V9.21677H93.0386V21.7893H90.7106L90.7035 9.21677Z" fill="black"/>
<path d="M105.713 7.25098H108.041V13.8808H117.353V7.25098H119.706V21.782H117.358V15.8693H108.046V21.782H105.718L105.713 7.25098Z" fill="black"/>
<path d="M127.517 7.25119H138.133V9.21675H129.852V13.5091H136.284V15.4747H129.852V19.767H138.133V21.768H127.517V7.25119Z" fill="black"/>
<path d="M144.812 7.25119H152.727C156.651 7.25119 158.8 9.09988 158.8 11.9579C158.8 13.6118 158.119 15.163 156.061 16.0431L159.007 21.7822H156.429L153.785 16.5938C153.432 16.6286 153.077 16.6457 152.722 16.6452H149.204L149.17 14.6637H152.711C155.218 14.646 156.459 13.7783 156.459 11.9579C156.459 10.6298 155.884 9.73382 154.176 9.37081C153.687 9.2766 153.191 9.22505 152.693 9.21675H147.149V21.7893H144.812V7.25119Z" fill="black"/>
<path d="M9.97645 9.57459H19.8168V0H9.96212V9.57459H0.0268617L9.97466 19.4254H0V29H9.96212V19.4254H19.9242L9.97645 9.57459Z" fill="black"/>
</g>
<defs>
<clipPath id="clip0_54_525">
<rect width="159" height="29" fill="white"/>
</clipPath>
</defs>
</svg>
